<?xml version="1.0" encoding="UTF-8" standalone="no"?>
<svg
   xmlns:dc="http://purl.org/dc/elements/1.1/"
   xmlns:cc="http://creativecommons.org/ns#"
   xmlns:rdf="http://www.w3.org/1999/02/22-rdf-syntax-ns#"
   xmlns:svg="http://www.w3.org/2000/svg"
   xmlns="http://www.w3.org/2000/svg"
   xmlns:sodipodi="http://sodipodi.sourceforge.net/DTD/sodipodi-0.dtd"
   xmlns:inkscape="http://www.inkscape.org/namespaces/inkscape"
   height="30px"
   version="1.1"
   viewBox="0 0 30 30"
   width="30px"
   x="0px"
   y="0px"
   id="svg2"
   inkscape:version="0.48.2 r9819"
   sodipodi:docname="release-refresh-inverse.svg">
  <metadata
     id="metadata19">
    <rdf:RDF>
      <cc:Work
         rdf:about="">
        <dc:format>image/svg+xml</dc:format>
        <dc:type
           rdf:resource="http://purl.org/dc/dcmitype/StillImage" />
        <dc:title></dc:title>
      </cc:Work>
    </rdf:RDF>
  </metadata>
  <sodipodi:namedview
     pagecolor="#ffffff"
     bordercolor="#666666"
     borderopacity="1"
     objecttolerance="10"
     gridtolerance="10"
     guidetolerance="10"
     inkscape:pageopacity="0"
     inkscape:pageshadow="2"
     inkscape:window-width="640"
     inkscape:window-height="480"
     id="namedview17"
     showgrid="false"
     inkscape:zoom="7.8666667"
     inkscape:cx="15"
     inkscape:cy="15"
     inkscape:window-x="0"
     inkscape:window-y="0"
     inkscape:window-maximized="0"
     inkscape:current-layer="svg2" />
  <path
     d="m 13.207625,5.207625 0,15 -5.293,-5.293 c -0.389,-0.389 -1.025,-0.389 -1.414,0 l -1.586,1.586 c -0.389,0.389 -0.389,1.025 0,1.414 l 9.586,9.586 c 0.389,0.389 1.025,0.389 1.414,0 l 9.586,-9.586 c 0.389,-0.389 0.389,-1.025 0,-1.414 l -1.586,-1.586 c -0.389,-0.389 -1.025,-0.389 -1.414,0 l -5.293,5.293 0,-15 c 0,-0.549 -0.449,-1 -1,-1 l -2,0 c -0.549,0 -1,0.451 -1,1 z"
     id="path4"
     inkscape:connector-curvature="0"
     style="fill:#ffffff" />
  <path
     d="m 13.207625,4.207625 0,15 -5.293,-5.293 c -0.389,-0.389 -1.025,-0.389 -1.414,0 l -1.586,1.586 c -0.389,0.389 -0.389,1.025 0,1.414 l 9.586,9.586 c 0.389,0.389 1.025,0.389 1.414,0 l 9.586,-9.586 c 0.389,-0.389 0.389,-1.025 0,-1.414 l -1.586,-1.586 c -0.389,-0.389 -1.025,-0.389 -1.414,0 l -5.293,5.293 0,-15 c 0,-0.549 -0.449,-1 -1,-1 l -2,0 c -0.55,0 -1,0.451 -1,1 z"
     id="path6"
     style="fill:url(#SVGID_1_)"
     inkscape:connector-curvature="0" />
  <rect
     height="30"
     width="30"
     id="rect8"
     x="-30"
     y="0"
     style="fill:none"
     transform="matrix(0,-1,1,0,0,0)" />
  <defs
     id="defs10">
    <linearGradient
       gradientUnits="userSpaceOnUse"
       id="SVGID_1_"
       x1="15.208"
       x2="15.208"
       y1="27"
       y2="4.7612"
       gradientTransform="matrix(0,-1,1,0,0.207625,30.207625)">
      <stop
         offset="0"
         style="stop-color:#636363"
         id="stop13" />
      <stop
         offset="1"
         style="stop-color:#000000"
         id="stop15" />
    </linearGradient>
  </defs>
</svg>
