<?xml version="1.0" encoding="utf-8"?>
<!-- Generator: Adobe Illustrator 17.0.0, SVG Export Plug-In . SVG Version: 6.00 Build 0)  -->
<!DOCTYPE svg PUBLIC "-//W3C//DTD SVG 1.1//EN" "http://www.w3.org/Graphics/SVG/1.1/DTD/svg11.dtd">
<svg version="1.1" id="图层_1" xmlns="http://www.w3.org/2000/svg" xmlns:xlink="http://www.w3.org/1999/xlink" x="0px" y="0px"
	 width="30px" height="30px" viewBox="0 0 30 30" enable-background="new 0 0 30 30" xml:space="preserve">
<rect fill="none" width="30" height="30"/>
<g>
	<path fill-opacity="0.15" d="M5,26c-0.553,0-1-0.447-1-1v-2c0-0.553,0.447-1,1-1c-0.553,0-1-0.447-1-1V11c0-0.552,0.447-1,1-1h4
		c0.553,0,1,0.448,1,1v10c0,0.553-0.447,1-1,1h4c-0.553,0-1-0.447-1-1V8c0-0.552,0.447-1,1-1h4c0.553,0,1,0.448,1,1v13
		c0,0.553-0.447,1-1,1h4c-0.553,0-1-0.447-1-1V5c0-0.552,0.447-1,1-1h4c0.553,0,1,0.448,1,1v16c0,0.553-0.447,1-1,1
		c0.553,0,1,0.447,1,1v2c0,0.553-0.447,1-1,1H5z"/>
	<path fill-opacity="0.3" d="M25,24H5v-2h20V24z M9,10H5v10h4V10z M25,4h-4v16h4V4z M17,7h-4v13h4V7z"/>
	<path fill="#FFFFFF" d="M25,25H5v-2h20V25z M9,11H5v10h4V11z M25,5h-4v16h4V5z M17,8h-4v13h4V8z"/>
</g>
</svg>
